<svg width="60" height="60" viewBox="0 0 60 60" fill="none" xmlns="http://www.w3.org/2000/svg">
<g clip-path="url(#clip0_27_9)">
<mask id="mask0_27_9" style="mask-type:luminance" maskUnits="userSpaceOnUse" x="0" y="0" width="60" height="60">
<path d="M60 0H0V60H60V0Z" fill="white"/>
</mask>
<g mask="url(#mask0_27_9)">
<path d="M1.54742 50.0025C1.34742 50.0025 1.23492 50 1.21492 50C0.524923 49.98 -0.0175765 49.405 -7.65391e-05 48.715C0.0199235 48.025 0.574923 47.53 1.28492 47.5C1.69992 47.495 44.1574 48.25 53.7874 10.9375C53.9599 10.2675 54.6399 9.86997 55.3099 10.04C55.9774 10.2125 56.3799 10.895 56.2074 11.5625C46.5424 49.02 5.66742 50.0025 1.54742 50.0025Z" fill="white"/>
<path d="M58.7498 18.995C58.3173 18.995 57.8973 18.7725 57.6648 18.37L54.5398 12.9575L49.1273 16.0825C48.5298 16.425 47.7648 16.2225 47.4198 15.625C47.0748 15.0275 47.2798 14.2625 47.8773 13.9175L54.3723 10.1675C54.9673 9.81996 55.7323 10.025 56.0798 10.625L59.8298 17.12C60.1748 17.7175 59.9698 18.4825 59.3723 18.8275C59.1773 18.9425 58.9623 18.995 58.7498 18.995Z" fill="white"/>
<path d="M53.75 60C53.06 60 52.5 59.44 52.5 58.75V26.25C52.5 25.56 53.06 25 53.75 25C54.44 25 55 25.56 55 26.25V58.75C55 59.44 54.44 60 53.75 60Z" fill="white"/>
<path d="M38.75 60C38.06 60 37.5 59.44 37.5 58.75V43.75C37.5 43.06 38.06 42.5 38.75 42.5C39.44 42.5 40 43.06 40 43.75V58.75C40 59.44 39.44 60 38.75 60Z" fill="white"/>
<path d="M23.75 60C23.06 60 22.5 59.44 22.5 58.75V51.25C22.5 50.56 23.06 50 23.75 50C24.44 50 25 50.56 25 51.25V58.75C25 59.44 24.44 60 23.75 60Z" fill="white"/>
<path d="M8.75 60C8.06 60 7.5 59.44 7.5 58.75V55C7.5 54.31 8.06 53.75 8.75 53.75C9.44 53.75 10 54.31 10 55V58.75C10 59.44 9.44 60 8.75 60Z" fill="white"/>
<path d="M18.145 29.5951C17.825 29.5951 17.505 29.4726 17.26 29.2301L8.26999 20.2376C7.79999 19.7676 7.77999 19.0101 8.22499 18.5176L15.59 10.3401C20.8225 4.29755 29.1225 0.132553 36.2275 5.31878e-05C36.5225 -0.0399468 36.895 0.127553 37.135 0.365053C37.375 0.607553 37.505 0.935053 37.5 1.27255C37.3675 8.37755 33.2025 16.6776 27.14 21.9251L18.98 29.2751C18.745 29.4901 18.445 29.5951 18.145 29.5951ZM10.8775 19.3101L18.1925 26.6251L25.4875 20.0526C30.6775 15.5601 34.3425 8.69755 34.9225 2.57755C28.8025 3.15755 21.9425 6.82255 17.465 11.9951L10.8775 19.3101Z" fill="white"/>
<path d="M21.5102 35.525C21.3977 35.525 21.2827 35.51 21.1702 35.4775C20.7352 35.3525 20.4002 35.0075 20.2927 34.565L18.5252 27.19C18.3652 26.52 18.7802 25.845 19.4502 25.6825C20.1277 25.525 20.7977 25.9375 20.9577 26.6075L22.1302 31.505C24.3027 28.1075 24.7352 23.76 24.7802 21.2175C24.7927 20.5275 25.3877 19.9875 26.0527 19.99C26.7427 20 27.2927 20.5725 27.2802 21.26C27.1752 27.175 25.4402 32.11 22.3927 35.1575C22.1552 35.395 21.8352 35.525 21.5102 35.525Z" fill="white"/>
<path d="M10.6026 19.0076C10.5051 19.0076 10.4076 18.9976 10.3101 18.9726L2.93508 17.2051C2.49508 17.1001 2.14508 16.7676 2.02258 16.3301C1.90008 15.8951 2.02258 15.4276 2.34008 15.1076C5.38758 12.0601 10.3226 10.3251 16.2401 10.2201C16.9326 10.1576 17.5001 10.7576 17.5101 11.4476C17.5201 12.1376 16.9751 12.7076 16.2826 12.7201C13.7376 12.7651 9.39258 13.1976 5.99508 15.3701L10.8926 16.5426C11.5626 16.7026 11.9776 17.3776 11.8176 18.0501C11.6776 18.6226 11.1676 19.0076 10.6026 19.0076Z" fill="white"/>
<path d="M1.25005 37.5C0.92255 37.5 0.60505 37.37 0.36505 37.135C0.0400504 36.81 -0.0799496 36.3325 0.0525504 35.8925C0.46505 34.5125 2.61005 27.5475 4.29005 25.8675C6.31255 23.8425 9.60505 23.84 11.6351 25.8675C13.6601 27.8925 13.6601 31.1875 11.6351 33.2125C9.95755 34.8925 2.99005 37.035 1.61005 37.4475C1.49005 37.4825 1.37005 37.5 1.25005 37.5ZM7.96255 26.8475C7.27255 26.8475 6.58255 27.11 6.05755 27.635C5.34755 28.345 4.12755 31.475 3.17255 34.3275C6.02505 33.3725 9.15755 32.1525 9.86505 31.445C10.9151 30.395 10.9151 28.685 9.86505 27.6375C9.34005 27.11 8.65005 26.8475 7.96255 26.8475Z" fill="white"/>
</g>
</g>
<defs>
<clipPath id="clip0_27_9">
<rect width="60" height="60" fill="white"/>
</clipPath>
</defs>
</svg>
