<svg width="71" height="82" viewBox="0 0 71 82" fill="none" xmlns="http://www.w3.org/2000/svg">
<g clip-path="url(#clip0_314_10230)">
<path d="M24.3206 82.0001L70.9959 55.2634L70.9229 34.897L67.552 35.0155L67.9501 41.4337L24.3659 66.5923L14.795 61.006L48.0273 41.8068L46.2059 40.3346L11.9029 60.6909L11.7441 75.06L24.3206 82.0001ZM25.545 68.0645L69.0611 42.974L68.9326 54.5323L25.3484 79.6909L25.545 68.0645Z" fill="#AE62E7"/>
<path d="M70.7535 26.9081L24.189 0L6.75781 10.5651L13.764 9.59204L57.4238 34.6196V45.7116L23.9925 26.4998L23.6423 28.8139L59.1041 48.7518L70.9223 42.331L70.7535 26.9081ZM58.0889 32.8701L14.5249 7.8627L24.5719 2.1579L68.2291 27.1854L58.0889 32.8701Z" fill="#22285E"/>
<path d="M12.8373 6.84912L0.00390625 14.2833V67.676L11.8245 75.1102V72.0675L2.02944 66.3223V15.9723L11.8245 21.7174V60.9629L13.5125 59.9747V21.7174L23.3051 15.9723V54.1489L24.9955 53.143L25.1442 14.011L12.8373 6.84912Z" fill="#95D5B6"/>
</g>
<defs>
<clipPath id="clip0_314_10230">
<rect width="71" height="82" fill="white"/>
</clipPath>
</defs>
</svg>
