<svg width="60" height="60" viewBox="0 0 60 60" fill="none" xmlns="http://www.w3.org/2000/svg">
<g clip-path="url(#clip0_4_11911)">
<path d="M29.6527 47.665C29.3327 47.665 29.0127 47.5425 28.7677 47.3L12.7002 31.2325C12.2302 30.7625 12.2102 30.01 12.6502 29.515L24.6927 16.025C33.1102 6.1775 46.8177 -0.195004 58.7702 0.00749652C59.4377 0.0224965 59.9752 0.559997 59.9902 1.2275C60.2677 13.1875 53.8227 26.8875 43.9502 35.3225L30.4827 47.3475C30.2477 47.56 29.9477 47.665 29.6527 47.665ZM15.3027 30.3L29.7002 44.6975L42.3077 33.4425C51.3227 25.7375 57.3102 13.4575 57.4952 2.505C46.5427 2.6875 34.2652 8.675 26.5752 17.67L15.3027 30.3Z" fill="white"/>
<path d="M34.4398 56.815C34.3198 56.815 34.1973 56.7975 34.0823 56.76C33.6324 56.61 33.2624 56.2651 33.1974 55.7951L31.4824 43.8275C31.3849 43.145 31.8599 42.5125 32.5424 42.4125C33.2249 42.305 33.8573 42.7875 33.9573 43.4725L35.2973 52.8225C39.6773 47.585 42.1123 40.945 42.1123 34.175C42.1123 33.485 42.6723 32.925 43.3623 32.925C44.0523 32.925 44.6123 33.485 44.6123 34.175C44.6123 42.4575 41.2573 50.5651 35.4073 56.4125C35.1573 56.6625 34.7923 56.815 34.4398 56.815V56.815Z" fill="white"/>
<path d="M16.3523 28.5299C16.2948 28.5299 16.2348 28.5274 16.1748 28.5174L4.20728 26.8024C3.73728 26.7349 3.34478 26.4074 3.19728 25.9549C3.04978 25.5049 3.16978 25.0074 3.50728 24.6749C9.43978 18.7425 17.5448 15.3875 25.8273 15.3875C26.5173 15.3875 27.0773 15.9475 27.0773 16.6375C27.0773 17.3275 26.5173 17.8875 25.8273 17.8875C19.0248 17.8875 12.3498 20.345 7.16728 24.7L16.5298 26.0424C17.2123 26.1424 17.6873 26.7724 17.5898 27.4574C17.4973 28.0799 16.9623 28.5299 16.3523 28.5299V28.5299Z" fill="white"/>
<path d="M42.8326 23.4151C41.2301 23.4151 39.6301 22.8051 38.4126 21.5876C35.9776 19.1501 35.9776 15.1851 38.4126 12.7476C40.8501 10.3101 44.8151 10.3101 47.2526 12.7476C49.6876 15.1851 49.6876 19.1501 47.2526 21.5876C46.0326 22.8076 44.4326 23.4151 42.8326 23.4151ZM42.8326 13.4201C41.8726 13.4201 40.9101 13.7851 40.1801 14.5151C38.7201 15.9776 38.7201 18.3576 40.1801 19.8201C41.6426 21.2801 44.0226 21.2776 45.4851 19.8201C46.9451 18.3576 46.9451 15.9776 45.4851 14.5151C44.7526 13.7876 43.7926 13.4201 42.8326 13.4201ZM46.3676 20.7051H46.3926H46.3676Z" fill="white"/>
<path d="M1.25005 60.0001C0.92255 60.0001 0.60505 59.8726 0.36505 59.6351C0.0400504 59.3101 -0.0799496 58.8326 0.0525504 58.3926C0.46255 57.0251 4.13505 44.9401 6.81005 42.2651C9.82255 39.2526 14.725 39.2501 17.7376 42.2651C20.7501 45.2776 20.7501 50.1801 17.7376 53.1926C15.0625 55.8676 2.97755 59.5401 1.61005 59.9501C1.49005 59.9826 1.37005 60.0001 1.25005 60.0001V60.0001ZM12.2751 42.5026C10.9351 42.5026 9.59755 43.0126 8.57755 44.0301C7.13505 45.4751 4.73505 51.9276 3.15005 56.8501C8.07005 55.2651 14.5251 52.8651 15.9676 51.4226C18.0051 49.3851 18.0051 46.0676 15.9676 44.0301C14.9501 43.0126 13.6126 42.5026 12.2751 42.5026Z" fill="white"/>
</g>
<defs>
<clipPath id="clip0_4_11911">
<rect width="60" height="60" fill="white"/>
</clipPath>
</defs>
</svg>
