<svg width="839" height="1024" viewBox="0 0 839 1024" fill="none" xmlns="http://www.w3.org/2000/svg">
<path fill-rule="evenodd" clip-rule="evenodd" d="M278.129 292.544C313.642 396.358 416.274 483.602 400.285 592.151C384.248 701.015 255.624 751.911 196.767 844.886C142.26 930.989 141.397 1045.54 68.3129 1116.56C-11.9546 1194.55 -117.574 1254.55 -229.407 1259.01C-341.939 1263.5 -447.573 1205.5 -539.778 1140.83C-626.506 1080.01 -680.756 988.862 -739.905 900.984C-802.137 808.528 -887.024 722.818 -895.918 611.724C-904.95 498.909 -837.261 397.853 -788.359 295.787C-736.625 187.813 -709.16 48.0661 -601.127 -3.54299C-492.298 -55.5317 -367.229 54.762 -247.851 37.5793C-102.218 16.6175 26.6781 -177.142 159.077 -112.963C288.04 -50.4496 231.742 156.943 278.129 292.544Z" fill="#AE62E7" fill-opacity="0.5"/>
<path fill-rule="evenodd" clip-rule="evenodd" d="M413.795 259.655C449.308 363.469 551.94 450.713 535.951 559.262C519.914 668.126 391.29 719.023 332.433 811.997C277.926 898.1 277.063 1012.65 203.979 1083.67C123.711 1161.66 18.0923 1221.66 -93.7408 1226.12C-206.273 1230.61 -311.907 1172.61 -404.112 1107.95C-490.84 1047.12 -545.089 955.973 -604.239 868.095C-666.471 775.639 -751.358 689.929 -760.252 578.836C-769.284 466.02 -701.595 364.964 -652.693 262.898C-600.959 154.924 -573.494 15.1774 -465.461 -36.4317C-356.632 -88.4203 -231.563 21.8734 -112.185 4.69059C33.4482 -16.2712 162.344 -210.031 294.743 -145.852C423.706 -83.3383 367.408 124.054 413.795 259.655Z" fill="#AE62E7" fill-opacity="0.2"/>
</svg>

