<svg width="60" height="60" viewBox="0 0 60 60" fill="none" xmlns="http://www.w3.org/2000/svg">
<g clip-path="url(#clip0_4_11921)">
<path d="M56.25 52.5H3.75C1.6825 52.5 0 50.8175 0 48.75V13.75C0 11.6825 1.6825 10 3.75 10H13.75C14.44 10 15 10.56 15 11.25C15 11.94 14.44 12.5 13.75 12.5H3.75C3.06 12.5 2.5 13.06 2.5 13.75V48.75C2.5 49.44 3.06 50 3.75 50H56.25C56.94 50 57.5 49.44 57.5 48.75V13.75C57.5 13.06 56.94 12.5 56.25 12.5H53.75C53.06 12.5 52.5 11.94 52.5 11.25C52.5 10.56 53.06 10 53.75 10H56.25C58.3175 10 60 11.6825 60 13.75V48.75C60 50.8175 58.3175 52.5 56.25 52.5Z" fill="white"/>
<path d="M38.7499 60H21.25C20.745 60 20.2875 59.695 20.095 59.2275C19.9 58.76 20.0075 58.2225 20.365 57.865C23.655 54.575 23.6975 51.39 23.6975 51.255C23.7 50.5675 24.2599 50 24.9499 50H34.9999C35.6874 50 36.2474 50.555 36.2499 51.2425C36.2524 51.4 36.3499 54.5825 39.6349 57.865C39.9924 58.2225 40.0999 58.76 39.9049 59.2275C39.7124 59.695 39.2549 60 38.7499 60ZM23.9275 57.5H36.0699C34.6699 55.4975 34.1149 53.6575 33.8949 52.5H26.07C25.8575 53.6625 25.3175 55.5 23.9275 57.5ZM36.2499 51.25H36.2749H36.2499Z" fill="white"/>
<path d="M58.75 45H1.25C0.56 45 0 44.44 0 43.75C0 43.06 0.56 42.5 1.25 42.5H58.75C59.44 42.5 60 43.06 60 43.75C60 44.44 59.44 45 58.75 45Z" fill="white"/>
<path d="M31.895 29.5951C31.575 29.5951 31.255 29.4726 31.01 29.2301L22.02 20.2376C21.55 19.7676 21.53 19.0101 21.975 18.5176L29.34 10.3401C34.5725 4.29756 42.8725 0.132559 49.9775 5.91746e-05C50.3175 -0.0224408 50.645 0.125059 50.885 0.365059C51.125 0.605059 51.2575 0.932559 51.25 1.27256C51.1175 8.37756 46.9525 16.6776 40.89 21.9251L32.73 29.2751C32.495 29.4901 32.195 29.5951 31.895 29.5951ZM24.6275 19.3101L31.9425 26.6251L39.2375 20.0526C44.4275 15.5601 48.0925 8.69756 48.6725 2.57756C42.5525 3.15756 35.6925 6.82256 31.215 11.9951L24.6275 19.3101Z" fill="white"/>
<path d="M35.26 35.525C35.1475 35.525 35.0325 35.51 34.92 35.4775C34.485 35.355 34.15 35.0075 34.0425 34.565L32.275 27.19C32.115 26.52 32.53 25.845 33.2 25.6825C33.88 25.525 34.5475 25.9375 34.7075 26.6075L35.88 31.505C38.0525 28.1075 38.485 23.76 38.53 21.2175C38.5425 20.5275 39.05 19.94 39.8025 19.99C40.4925 20 41.0425 20.5725 41.03 21.26C40.925 27.175 39.19 32.11 36.1425 35.1575C35.905 35.3975 35.585 35.525 35.26 35.525Z" fill="white"/>
<path d="M24.3525 19.0075C24.255 19.0075 24.1574 18.9975 24.0599 18.9725L16.685 17.205C16.245 17.1 15.895 16.7675 15.7725 16.33C15.65 15.895 15.7725 15.4275 16.09 15.1075C19.1375 12.06 24.0725 10.325 29.9874 10.22C30.7099 10.225 31.2474 10.7575 31.2599 11.4475C31.2724 12.1375 30.7224 12.7075 30.0324 12.72C27.4874 12.765 23.1425 13.1975 19.745 15.37L24.6425 16.5425C25.3125 16.7025 25.7275 17.3775 25.5675 18.05C25.4275 18.6225 24.9175 19.0075 24.3525 19.0075Z" fill="white"/>
<path d="M15.0001 37.5C14.6726 37.5 14.3551 37.3725 14.1151 37.135C13.7901 36.81 13.6701 36.3325 13.8026 35.8925C14.2151 34.5125 16.3601 27.5475 18.0401 25.8675C20.0626 23.8425 23.3551 23.84 25.3851 25.8675C27.4101 27.8925 27.4101 31.1875 25.3851 33.2125C23.7076 34.89 16.7401 37.0375 15.3601 37.45C15.2401 37.4825 15.1201 37.5 15.0001 37.5ZM21.7126 26.8475C21.0226 26.8475 20.3326 27.11 19.8076 27.635C19.0976 28.345 17.8776 31.475 16.9226 34.3275C19.7751 33.3725 22.9076 32.15 23.6151 31.4425C24.6651 30.3925 24.6651 28.6825 23.6151 27.635C23.0901 27.11 22.4001 26.8475 21.7126 26.8475Z" fill="white"/>
</g>
<defs>
<clipPath id="clip0_4_11921">
<rect width="60" height="60" fill="white"/>
</clipPath>
</defs>
</svg>
