<svg width="30" height="35" viewBox="0 0 30 35" fill="none" xmlns="http://www.w3.org/2000/svg">
<g clip-path="url(#clip0_4_11896)">
<path d="M10.2764 35.0001L29.9984 23.5881L29.9675 14.8951L28.5432 14.9457L28.7114 17.6851L10.2955 28.4236L6.25151 26.0392L20.2933 17.8444L19.5237 17.216L5.02947 25.9047L4.9624 32.0379L10.2764 35.0001ZM10.7937 29.052L29.1808 18.3426L29.1265 23.276L10.7107 34.0145L10.7937 29.052Z" fill="white"/>
<path d="M29.8959 11.4852L10.2207 0L2.85547 4.5095L5.81584 4.09417L24.2636 14.7767V19.511L10.1377 11.3109L9.98974 12.2986L24.9736 20.8087L29.9672 18.0681L29.8959 11.4852ZM24.5446 14.0299L6.13732 3.35603L10.3825 0.921053L28.8293 11.6035L24.5446 14.0299Z" fill="white"/>
<path d="M5.42439 2.92345L0.00183105 6.09656V28.8862L4.99646 32.0593V30.7605L0.857689 28.3083V6.81748L4.99646 9.26967V26.0208L5.70968 25.599V9.26967L9.84739 6.81748V23.1124L10.5617 22.683L10.6245 5.98035L5.42439 2.92345V2.92345Z" fill="white"/>
</g>
<defs>
<clipPath id="clip0_4_11896">
<rect width="30" height="35" fill="white"/>
</clipPath>
</defs>
</svg>
