<svg width="60" height="60" viewBox="0 0 60 60" fill="none" xmlns="http://www.w3.org/2000/svg">
<g clip-path="url(#clip0_4_11948)">
<path d="M38.75 50H1.25C0.56 50 0 49.44 0 48.75C0 48.06 0.56 47.5 1.25 47.5H38.75C39.44 47.5 40 48.06 40 48.75C40 49.44 39.44 50 38.75 50Z" fill="white"/>
<path d="M33.75 60H6.25C2.805 60 0 57.195 0 53.75V6.25C0 2.805 2.805 0 6.25 0H33.75C37.195 0 40 2.805 40 6.25C40 6.94 39.44 7.5 38.75 7.5C38.06 7.5 37.5 6.94 37.5 6.25C37.5 4.1825 35.8175 2.5 33.75 2.5H6.25C4.1825 2.5 2.5 4.1825 2.5 6.25V53.75C2.5 55.8175 4.1825 57.5 6.25 57.5H33.75C35.8175 57.5 37.5 55.8175 37.5 53.75V46.25C37.5 45.56 38.06 45 38.75 45C39.44 45 40 45.56 40 46.25V53.75C40 57.195 37.195 60 33.75 60Z" fill="white"/>
<path d="M40.6451 34.5951C40.3251 34.5951 40.0051 34.4726 39.7601 34.2301L30.7676 25.2376C30.2976 24.7676 30.2776 24.0101 30.7226 23.5176L38.0876 15.3401C43.3226 9.29756 51.6226 5.13256 58.7276 5.00006C59.0651 4.99256 59.3951 5.12506 59.6351 5.36506C59.8751 5.60506 60.0051 5.93506 60.0001 6.27256C59.8676 13.3776 55.7026 21.6776 49.6401 26.9251L41.4801 34.2751C41.2451 34.4901 40.9451 34.5951 40.6451 34.5951V34.5951ZM33.3776 24.3101L40.6926 31.6251L47.9876 25.0526C53.1776 20.5601 56.8426 13.6976 57.4226 7.57756C51.3026 8.15756 44.4426 11.8226 39.9651 16.9951L33.3776 24.3101Z" fill="white"/>
<path d="M44.0101 40.525C43.8976 40.525 43.7826 40.51 43.6701 40.4775C43.2351 40.355 42.9001 40.0075 42.7926 39.565L41.0251 32.19C40.8651 31.52 41.2801 30.845 41.9501 30.6825C42.6326 30.525 43.2976 30.9375 43.4576 31.6075L44.6301 36.505C46.8026 33.1075 47.2351 28.76 47.2801 26.2175C47.2926 25.5275 47.8376 24.9775 48.5526 24.99C49.2426 25.0025 49.7926 25.5725 49.7801 26.2625C49.6751 32.1775 47.9401 37.1125 44.8926 40.16C44.6551 40.3975 44.3351 40.525 44.0101 40.525Z" fill="white"/>
<path d="M33.1026 24.0075C33.0051 24.0075 32.9076 23.9975 32.8101 23.9725L25.4351 22.205C24.9951 22.1 24.6451 21.7675 24.5226 21.33C24.4001 20.895 24.5226 20.4275 24.8401 20.1075C27.8876 17.06 32.8226 15.325 38.7376 15.22C39.3851 15.265 40.0001 15.7575 40.0101 16.4475C40.0201 17.1375 39.4726 17.7075 38.7826 17.72C36.2376 17.765 31.8926 18.1975 28.4951 20.37L33.3926 21.5425C34.0626 21.7025 34.4776 22.3775 34.3176 23.05C34.1776 23.6225 33.6676 24.0075 33.1026 24.0075V24.0075Z" fill="white"/>
<path d="M23.7501 42.5C23.4226 42.5 23.1051 42.3725 22.8651 42.135C22.5401 41.81 22.4201 41.3325 22.5526 40.8925C22.9651 39.5125 25.11 32.5475 26.79 30.8675C28.8126 28.8425 32.1051 28.84 34.1351 30.8675C36.1601 32.8925 36.1601 36.1875 34.1351 38.2125C32.4576 39.89 25.4901 42.0375 24.1101 42.45C23.9901 42.4825 23.8701 42.5 23.7501 42.5V42.5ZM30.4626 31.8475C29.7726 31.8475 29.0826 32.11 28.5576 32.635C27.8476 33.345 26.6276 36.475 25.6726 39.3275C28.5251 38.3725 31.6576 37.15 32.3651 36.4425C33.4151 35.3925 33.4151 33.6825 32.3651 32.635C31.8401 32.11 31.1501 31.8475 30.4626 31.8475Z" fill="white"/>
</g>
<defs>
<clipPath id="clip0_4_11948">
<rect width="60" height="60" fill="white"/>
</clipPath>
</defs>
</svg>
