<svg width="70" height="71" viewBox="0 0 70 71" fill="none" xmlns="http://www.w3.org/2000/svg">
<path d="M19.0885 48.2732C18.7717 48.2274 18.4725 48.0605 18.2647 47.7855L10.6488 37.6008C10.2507 37.0685 10.3391 36.3159 10.8499 35.892L19.3074 28.8503C25.3518 23.6175 34.1616 20.6806 41.2126 21.5643C41.5478 21.6051 41.8554 21.7834 42.0587 22.0552C42.262 22.327 42.3435 22.6722 42.2903 23.0055C41.1444 30.0188 35.8366 37.6388 29.0868 41.9666L19.9606 48.0757C19.6973 48.2549 19.3854 48.316 19.0885 48.2732ZM13.3645 37.0556L19.5597 45.3404L27.7186 39.8772C33.4971 36.1721 38.1047 29.9034 39.5529 23.929C33.4128 23.6289 26.0996 26.2765 20.9293 30.7565L13.3645 37.0556Z" fill="white"/>
<path d="M21.5721 54.6229C21.4607 54.6068 21.3491 54.5755 21.2424 54.5273C20.8293 54.3439 20.5474 53.9521 20.5042 53.4988L19.8082 45.947C19.7455 45.261 20.2527 44.6522 20.939 44.587C21.637 44.5286 22.2363 45.0319 22.2989 45.7179L22.7599 50.7326C25.3954 47.6803 26.4444 43.4391 26.8521 40.9291C26.963 40.248 27.581 39.7814 28.2869 39.8959C28.968 40.0069 29.431 40.6496 29.32 41.3307C28.3713 47.1701 25.9492 51.8067 22.4977 54.3877C22.2287 54.5888 21.8937 54.6693 21.5721 54.6229Z" fill="white"/>
<path d="M13.1359 36.7168C13.0394 36.7029 12.9443 36.6791 12.8514 36.6404L5.80446 33.8376C5.38397 33.6709 5.08505 33.2918 5.0263 32.8413C4.96718 32.3932 5.1552 31.948 5.51515 31.6766C8.96668 29.0957 14.0989 28.0833 19.9682 28.8242C20.6027 28.9613 21.141 29.5366 21.0524 30.2209C20.9637 30.9053 20.3404 31.3912 19.6557 31.305C17.1304 30.9861 12.7681 30.7935 9.09518 32.4585L13.775 34.3185C14.4153 34.5726 14.7296 35.2999 14.4752 35.9427C14.2549 36.4893 13.6951 36.7975 13.1359 36.7168Z" fill="white"/>
<path d="M1.23772 53.6839C0.913577 53.6371 0.617543 53.4656 0.413926 53.1962C0.138679 52.8281 0.0881104 52.3384 0.282098 51.9218C0.887475 50.6149 4.0053 44.0277 5.90803 42.6048C8.19903 40.8895 11.4581 41.3573 13.1777 43.6539C14.8927 45.9474 14.4221 49.2086 12.1286 50.9236C10.2287 52.3443 3.02594 53.4746 1.60117 53.6858C1.47776 53.7008 1.35649 53.701 1.23772 53.6839ZM9.4029 44.0993C8.71998 44.0008 7.99956 44.162 7.40496 44.6067C6.60083 45.208 4.94627 48.1316 3.59364 50.8185C6.5533 50.2807 9.82829 49.5182 10.6296 48.919C11.8188 48.0297 12.063 46.3372 11.1734 45.1505C10.7288 44.5559 10.0834 44.1975 9.4029 44.0993Z" fill="white"/>
<path d="M32.1064 51.8853C45.0827 54.588 57.7931 46.2596 60.4959 33.2832C63.1986 20.3068 54.8701 7.59643 41.8938 4.89372C28.9174 2.191 16.207 10.5194 13.5043 23.4958" stroke="white" stroke-width="2.5" stroke-linecap="round"/>
<path d="M52.0002 47.8895L68.5002 68.8895" stroke="white" stroke-width="2.5" stroke-linecap="round"/>
</svg>
